Title: Cairo 1678 Aka 1678

Country: Egypt, 2010

Language: Arabic

Subtitle: English and Portuguese

Plot: Unfolds the poignant story of three women and their search for justice from the daily plight of sexual harassment in Egypt.

Director: Mohamed Diab

Writer: Mohamed Diab (original screenplay)

Stars: Boshra, Nelly Karim and Maged El Kedwany

Imdb:  
http://www.imdb.com/title/tt1764141/?ref_=fn_al_tt_1

Rip Specs:

General
Complete name                    : Cairo.678.2010.DVDRip.XviD.AC3.HORiZON-ArtSubs
Format                           : AVI
Format/Info                      : Audio Video Interleave
File size                        : 1.37 GiB
Duration                         : 1h 38mn
Overall bit rate                 : 1 982 Kbps
Writing application              : FairUse Wizard - http://fairusewizard.com
Writing library                  : The best and REALLY easy backup tool

Video
ID                               : 0
Format                           : MPEG-4 Visual
Format profile                   : Advanced Simple@L5
Format settings, BVOP            : 1
Format settings, QPel            : No
Format settings, GMC             : No warppoints
Format settings, Matrix          : Default (H.263)
Muxing mode                      : Packed bitstream
Codec ID                         : XVID
Codec ID/Hint                    : XviD
Duration                         : 1h 38mn
Bit rate                         : 1 778 Kbps
Width                            : 688 pixels
Height                           : 384 pixels
Display aspect ratio             : 16:9
Frame rate                       : 29.970 fps
Color space                      : YUV
Chroma subsampling               : 4:2:0
Bit depth                        : 8 bits
Scan type                        : Progressive
Compression mode                 : Lossy
Bits/(Pixel*Frame)               : 0.225
Stream size                      : 1.22 GiB (90%)
Writing library                  : XviD 1.1.0 (UTC 2005-11-22)

Audio
ID                               : 1
Format                           : AC-3
Format/Info                      : Audio Coding 3
Mode extension                   : CM (complete main)
Codec ID                         : 2000
Duration                         : 1h 38mn
Bit rate mode                    : Constant
Bit rate                         : 192 Kbps
Channel(s)                       : 2 channels
Channel positions                : Front: L R
Sampling rate                    : 48.0 KHz
Bit depth                        : 16 bits
Compression mode                 : Lossy
Stream size                      : 135 MiB (10%)
Alignment                        : Split accross interleaves
Interleave, duration             : 33 ms (1.00 video frame)
Interleave, preload duration     : 500 ms
